<svg xmlns="http://www.w3.org/2000/svg" style="display:none">
  <symbol id="chevron-down" viewBox="0 0 320 512"><path fill="currentColor" d="M143 352.3L7 216.3c-9.4-9.4-9.4-24.6 0-33.9l22.6-22.6c9.4-9.4 24.6-9.4 33.9 0l96.4 96.4 96.4-96.4c9.4-9.4 24.6-9.4 33.9 0l22.6 22.6c9.4 9.4 9.4 24.6 0 33.9l-136 136c-9.2 9.4-24.4 9.4-33.8 0z"/></symbol>
  <symbol id="graduation-cap" viewBox="0 0 640 512"><path fill="currentColor" d="M320 32c-8.1 0-16.1 1.4-23.7 4.1L15.8 137.4C6.3 140.9 0 149.9 0 160s6.3 19.1 15.8 22.6l57.4 20.9C57.1 212.6 64 225.6 64 240v48l-64-8v32c0 61.9 39.3 117.3 96 136.4V480c0 17.7 14.3 32 32 32h160c17.7 0 32-14.3 32-32v-35.6c56.7-19.1 96-74.5 96-136.4v-32l-64 8v-48c0-14.4 6.9-27.4 17.8-35.4l57.4-20.9c9.5-3.5 15.8-12.5 15.8-22.6s-6.3-19.1-15.8-22.6L343.7 36.1C336.1 33.4 328.1 32 320 32zm0 96c-26.5 0-48 21.5-48 48v48h96v-48c0-26.5-21.5-48-48-48z"/></symbol>
  <symbol id="phone-alt" viewBox="0 0 512 512"><path fill="currentColor" d="M497.4 361.8l-112-48a24 24 0 0 0-28 6.9l-49.6 69.6A370.6 370.6 0 0 1 130.8 256l69.6-49.6a24 24 0 0 0 6.9-28l-48-112A24 24 0 0 0 136.2 48H64C28.7 48 0 76.7 0 112v32c0 15.5 8.9 29.5 22.9 36.1C45.8 190.4 109.2 224 176 224c26.9 0 52.2-6.2 74.8-17.4C273 194.3 286 182.2 294.7 167l16.3-28.2c4.5-7.9 14.4-11.7 22.8-9.2l112 48c8.4 3.6 13.3 12.6 12.2 21.5l-18 152.9c-1.1 9.4-8.6 16.8-18 17.9l-152.9 18c-8.9 1.1-17.9-3.8-21.5-12.2z"/></symbol>
  <symbol id="tools" viewBox="0 0 512 512"><path fill="currentColor" d="M78.6 5C69.1-2.4 55.6-1.5 47 6.5L7.5 34.7C3.5 38.8 2.4 44.5 4.4 49.7L32 154.7c1.7 5 5.7 8.7 10.7 10l68.5 17.1c5-2 9.4-5.7 11.1-10.7L140 116c2-5.2.9-10.9-3.1-14.9L98.6 12.5C90.6 4 77.1 3.1 78.6 5zM416 128c0 17.7-14.3 32-32 32s-32-14.3-32-32s14.3-32 32-32s32 14.3 32 32zm0-96c0 17.7-14.3 32-32 32s-32-14.3-32-32s14.3-32 32-32s32 14.3 32 32zM96 288c-17.7 0-32 14.3-32 32s14.3 32 32 32 32-14.3 32-32-14.3-32-32-32zm0 96c-17.7 0-32 14.3-32 32s14.3 32 32 32 32-14.3 32-32-14.3-32-32-32zm320-32c-17.7 0-32 14.3-32 32s14.3 32 32 32 32-14.3 32-32-14.3-32-32-32zm0 96c-17.7 0-32 14.3-32 32s14.3 32 32 32 32-14.3 32-32-14.3-32-32-32zM433.6 192c-6.3 0-11.6 5.3-11.6 11.6v104.8c0 6.3 5.3 11.6 11.6 11.6h85.8c6.3 0 11.6-5.3 11.6-11.6V203.6c0-6.3-5.3-11.6-11.6-11.6h-85.8zM380.1 58.9l-73.2 73.2c-9 9-9 23.6 0 32.5l53.5 53.5c9 9 23.6 9 32.5 0l73.2-73.2c9-9 9-23.6 0-32.5l-53.5-53.5c-9-9-23.6-9-32.5 0zM62.3 196.5l73.2-73.2c9-9 9-23.6 0-32.5L82 37.3c-9-9-23.6-9-32.5 0L6.3 110.5c-9 9-9 23.6 0 32.5l53.5 53.5c9 9 23.6 9 32.5 0z"/></symbol>
  <symbol id="handshake" viewBox="0 0 640 512"><path fill="currentColor" d="M434.7 64h-85.9c-12 0-23.7 6.8-29.5 17.7L196 170.4l-27.4-11.5c-7.2-3-15.4-3-22.6 0L115.3 170.4 75.4 105.6c-5.8-10.9-17.5-17.7-29.5-17.7H.7C.3 64 0 64.3 0 64.7V192c0 8.8 7.2 16 16 16h16c8.8 0 16-7.2 16-16v-8.4l51.6 109.5c10.1 21.6 33.3 35.9 59.3 35.9h7.4c26 0 49.2-14.3 59.3-35.9L288 183.6v8.4c0 8.8 7.2 16 16 16h16c8.8 0 16-7.2 16-16V64.7c0-.3-.3-.7-.7-1.1l-1.1-.1h-1c1.3 4.8 2.1 9.8 2.1 14.9v262.4c0 41.7 33.8 75.5 75.5 75.5s75.5-33.8 75.5-75.5V212.3c0-18.7-12.7-34.8-30-39.2C529 166.3 500.5 160 470.4 160c-15.8 0-30.8 1.9-44.8 5.4-2.1.5-4.1 1.1-6.2 1.8-.6-.1-1.2-.2-1.8-.2-33.3 0-62 21.8-72.5 52.2-1.5 4.4-.8 9.1 1.8 13l11.3 16.5c3.3 4.8 9.9 6.6 15.3 4.1 18.5-8.5 39.4-13.3 61.7-13.3 31.3 0 60.5 10.7 84 28.8 2.4 1.8 4.7 3.8 7.2 5.6V212.3c0-5.1.8-10.1 2.1-14.9h-1l-1.1.1z"/></symbol>
  <symbol id="rocket" viewBox="0 0 512 512"><path fill="currentColor" d="M501.6 6.4C492.4-2.1 480 0 469.1 5.9l-60 33.8c-43.4 24.4-76.4 59.8-99.2 100.4L296 96.4c-3.3-4.5-8.3-7.4-13.8-7.4H184c-22.1 0-40 17.9-40 40v24c0 4.4-3.6 8-8 8H96c-17.7 0-32 14.3-32 32v160c0 17.7 14.3 32 32 32h32v32c0 17.7 14.3 32 32 32h32c17.7 0 32-14.3 32-32v-32h32c17.7 0 32-14.3 32-32V224c0-4.4 3.6-8 8-8h24c22.1 0 40-17.9 40-40v-16.2c0-5.5-2.9-10.5-7.4-13.8l-43.8-65.8c40.6-22.8 76-55.8 100.4-99.2l33.8-60c5.9-10.9 8.2-23.3 3.7-34.4z"/></symbol>
  <symbol id="laptop-code" viewBox="0 0 640 512"><path fill="currentColor" d="M255.03 261.65c6.24 6.24 6.24 16.37 0 22.61l-21.47 21.47c-6.24 6.24-16.37 6.24-22.61 0L90.91 272.1c-3.03-3.03-4.73-7.07-4.73-11.38s1.7-8.35 4.73-11.38l21.47-21.47c6.24-6.24 16.37-6.24 22.61 0l45.31 45.31zm112.47 0l45.31 45.31c6.24 6.24 16.37 6.24 22.61 0l21.47-21.47c6.24-6.24 6.24-16.37 0-22.61l-45.31-45.31c-3.03-3.03-7.07-4.73-11.38-4.73s-8.35 1.7-11.38 4.73l-45.31 45.31c-6.24 6.24-6.24 16.37 0 22.61l21.47 21.47zM624 416H381.29l-.25-.96c-3.92-14.24-8.89-27.88-14.86-40.74C334.78 348.63 304 336 269.6 336h-35.2c-34.4 0-65.18 12.63-76.58 38.3C143.82 388.12 138.85 401.76 134.93 416H32c-17.67 0-32 14.33-32 32v32c0 17.67 14.33 32 32 32h592c17.67 0 32-14.33 32-32v-32c0-17.67-14.33-32-32-32zM160 128h320c17.67 0 32-14.33 32-32V64c0-17.67-14.33-32-32-32H160c-17.67 0-32 14.33-32 32v32c0 17.67 14.33 32 32 32z"/></symbol>
  <symbol id="microchip" viewBox="0 0 512 512"><path fill="currentColor" d="M176 96h16v64h-16c-35.3 0-64 28.7-64 64v64h64v16c0 35.3 28.7 64 64 64h16v64h-16c-35.3 0-64 28.7-64 64v32c0 17.7 14.3 32 32 32h192c17.7 0 32-14.3 32-32v-32c0-35.3-28.7-64-64-64h-16v-64h16c35.3 0 64-28.7 64-64v-64h-64v-16c0-35.3-28.7-64-64-64h-16V96h16c35.3 0 64-28.7 64-64V0c0-17.7-14.3-32-32-32H192c-17.7 0-32 14.3-32 32v64c0 35.3 28.7 64 64 64zm32 32v64h128v-64c0-17.7-14.3-32-32-32h-64c-17.7 0-32 14.3-32 32zm32 256h64v-64h-64v64zm128 0h64v-64h-64v64zM192 320h64v-64h-64v64zm-64 64h64v-64h-64v64zm256 0h64v-64h-64v64zm64-64h64v-64h-64v64z"/></symbol>
  <symbol id="robot" viewBox="0 0 640 512"><path fill="currentColor" d="M320 0c17.7 0 32 14.3 32 32V48H480c17.7 0 32 14.3 32 32V224h32c17.7 0 32 14.3 32 32v32c0 53-43 96-96 96h-3.2c-5.7 13.4-17.4 22.4-31.3 21.8C370.6 391.5 328.2 384 320 384s-50.6 7.5-65.5 21.8c-13.9.6-25.6-8.4-31.3-21.8H224c-53 0-96-43-96-96V256c0-17.7 14.3-32 32-32H192V80c0-17.7 14.3-32 32-32h96zM96 256V224H64v64h32v64H64v32c0 17.7 14.3 32 32 32h32v32c0 17.7 14.3 32 32 32h64c17.7 0 32-14.3 32-32V400h32c17.7 0 32-14.3 32-32V368h32c17.7 0 32-14.3 32-32V304h32c17.7 0 32-14.3 32-32V256H544v-32H96zm288 80c-8.8 0-16-7.2-16-16s7.2-16 16-16 16 7.2 16 16-7.2 16-16 16zm-160 0c-8.8 0-16-7.2-16-16s7.2-16 16-16 16 7.2 16 16-7.2 16-16 16zM320 128c-17.7 0-32 14.3-32 32s14.3 32 32 32 32-14.3 32-32-14.3-32-32-32z"/></symbol>
  <symbol id="map-marker-alt" viewBox="0 0 384 512"><path fill="currentColor" d="M172.268 501.67C26.97 291.001 0 269.413 0 192 0 86.001 86.001 0 192 0s192 86.001 192 192c0 77.413-26.97 99.601-172.268 309.67-9.535 13.772-29.93 13.773-39.464 0zM192 272c44.183 0 80-35.817 80-80s-35.817-80-80-80-80 35.817-80 80 35.817 80 80 80z"/></symbol>
  <symbol id="clock" viewBox="0 0 512 512"><path fill="currentColor" d="M256 8C119 8 8 119 8 256s111 248 248 248 248-111 248-248S393 8 256 8zm0 448c-110.5 0-200-89.5-200-200S145.5 56 256 56s200 89.5 200 200-89.5 200-200 200zm61.8-104.4l-84-37.2c-13.3-5.9-21.8-19.6-21.8-34.4V112c0-26.5 21.5-48 48-48h16c26.5 0 48 21.5 48 48v135.6c0 22.3 13.3 42.5 33.8 51.2l72 32c23.8 10.5 34.2 38.8 23.7 62.6s-38.8 34.2-62.6 23.7l-72-32c-30.8-13.7-49.2-44.3-48.3-76.7z"/></symbol>
  <symbol id="comments" viewBox="0 0 640 512"><path fill="currentColor" d="M208 288h-32c-8.8 0-16 7.2-16 16v32c0 8.8 7.2 16 16 16h32c8.8 0 16-7.2 16-16v-32c0-8.8-7.2-16-16-16zm224-160h-32c-8.8 0-16 7.2-16 16v32c0 8.8 7.2 16 16 16h32c8.8 0 16-7.2 16-16v-32c0-8.8-7.2-16-16-16zM224 0C100.5 0 0 89.5 0 208c0 44.2 16.5 84.7 43.6 115.9C42.3 341.8 25.7 376.4 16 416c-1.3 5.3 2 10.7 5.3 13.3s8.7 3.1 12.7 1.2C57.4 424.7 91.5 416 128 416h16c106 0 192-86 192-192S330 0 224 0z"/></symbol>
  <symbol id="chevron-up" viewBox="0 0 320 512"><path fill="currentColor" d="M177 159.7l136 136c9.4 9.4 9.4 24.6 0 33.9l-22.6 22.6c-9.4 9.4-24.6 9.4-33.9 0l-96.4-96.4-96.4 96.4c-9.4 9.4-24.6 9.4-33.9 0L7 233.4c-9.4-9.4-9.4-24.6 0-33.9l136-136c9.2-9.4 24.4-9.4 33.8 0z"/></symbol>
  <symbol id="paper-plane" viewBox="0 0 512 512"><path fill="currentColor" d="M476.59 227.05l-.16-.07L49.35 49.84A23.56 23.56 0 0 0 27.14 52 24.65 24.65 0 0 0 16 73.56v134.29c0 15.49 7.87 29.57 20.94 37.83l344.36 210.35c19.26 11.77 44.3 11.77 63.56 0l18.54-11.32c12.47-7.64 17.59-23.18 11.97-36.13zM275.33 323.39l-164-161.73L227.1 74.3l208.56 156.12-160.33 92.97z"/></symbol>
  <symbol id="user-plus" viewBox="0 0 640 512"><path fill="currentColor" d="M96 128a128 128 0 1 1 256 0A128 128 0 1 1 96 128zM0 482.3C0 383.8 79.8 304 178.3 304h91.4C368.2 304 448 383.8 448 482.3c0 16.4-13.3 29.7-29.7 29.7H29.7C13.3 512 0 498.7 0 482.3zM504 312v48h48c13.3 0 24 10.7 24 24s-10.7 24-24 24h-48v48c0 13.3-10.7 24-24 24s-24-10.7-24-24v-48h-48c-13.3 0-24-10.7-24-24s10.7-24 24-24h48v-48c0-13.3 10.7-24 24-24s24 10.7 24 24z"/></symbol>
  <symbol id="check" viewBox="0 0 512 512"><path fill="currentColor" d="M173.898 439.404l-166.4-166.4c-9.997-9.997-9.997-26.206 0-36.204l36.203-36.204c9.997-9.998 26.207-9.998 36.204 0L192 312.69 432.095 72.596c9.997-9.997 26.207-9.997 36.204 0l36.203 36.204c9.997 9.997 9.997 26.206 0 36.204l-294.4 294.401c-9.998 9.997-26.207 9.997-36.204-.001z"/></symbol>
  <symbol id="whatsapp" viewBox="0 0 448 512"><path fill="currentColor" d="M380.9 97.1C339 55.1 283.2 32 223.9 32c-122.4 0-222 99.6-222 222 0 39.1 10.2 77.3 29.6 111L0 480l117.7-30.9c32.4 17.7 68.9 27 106.1 27h.1c122.3 0 224.1-99.6 224.1-222 0-59.3-25.2-115-67.1-157zm-157 341.6c-33.2 0-65.7-8.9-94-25.7l-6.7-4-69.8 18.3L72 359.2l-4.4-7c-18.5-29.4-28.2-63.3-28.2-98.2 0-101.7 82.8-184.5 184.6-184.5 49.3 0 95.6 19.2 130.4 54.1 34.8 34.9 56.2 81.2 56.1 130.5 0 101.8-84.9 184.6-186.6 184.6zm101.2-138.2c-5.5-2.8-32.8-16.2-37.9-18-5.1-1.9-8.8-2.8-12.5 2.8-3.7 5.6-14.3 18-17.6 21.8-3.2 3.7-6.5 4.2-12 1.4-32.6-16.3-54-29.1-75.5-66-5.7-9.8 5.7-18.1 16.3-24.1 1.8-1.1 3.4-2.5 5.1-3.7 1.7-1.3 3.3-3.3 4.9-5.5 1.6-2.2 2.2-3.7 3.3-6.2 1.1-2.5.6-4.7-.3-6.6-.8-1.9-12.4-29.6-17-40.5-4.5-10.5-9.1-9.1-12.5-9.3-3.2-.2-6.9-.2-10.6-.2-3.7 0-9.7 1.4-14.8 6.9-5.1 5.6-19.4 19-19.4 46.3 0 27.3 19.9 53.7 22.6 57.4 2.8 3.7 39.1 59.7 94.8 83.8 35.2 15.2 49 16.5 66.6 13.9 10.7-1.6 32.8-13.4 37.4-26.4 4.6-13 4.6-24.1 3.2-26.4-1.3-2.5-5-3.9-10.5-6.6z"/></symbol>
</svg>
